<svg width="933" height="553" viewBox="0 0 933 553" fill="none" xmlns="http://www.w3.org/2000/svg">
<path d="M279.81 108.132C290.634 109.704 295.555 122.525 288.564 130.936L263.751 160.785C256.913 169.012 243.749 166.84 239.915 156.853L226.315 121.424C222.481 111.437 230.811 101.014 241.398 102.552L279.81 108.132Z" fill="#EE964B"/>
<path d="M682.573 440.665C692.695 444.809 694.368 458.44 685.55 464.909L654.253 487.869C645.628 494.197 633.38 488.905 632.076 478.287L627.451 440.621C626.148 430.003 636.752 421.905 646.651 425.958L682.573 440.665Z" fill="#EE964B"/>
<path d="M520.873 40.4031C531.033 36.3528 541.706 44.9952 539.856 55.7751L533.293 94.0316C531.484 104.575 518.997 109.276 510.684 102.544L481.192 78.6618C472.878 71.9296 474.881 58.7385 484.818 54.7771L520.873 40.4031Z" fill="#F4D35E"/>
<path d="M146.451 287.375C148.676 298.084 138.312 307.094 128.017 303.4L91.4812 290.294C81.412 286.681 78.9502 273.568 87.0238 266.55L115.665 241.653C123.738 234.634 136.381 238.897 138.557 249.371L146.451 287.375Z" fill="#84BCDA"/>
<path d="M93.4448 487.108C101.277 494.742 97.723 508.007 87.1228 510.702L49.5042 520.267C39.1365 522.903 29.7629 513.408 32.5316 503.075L42.3537 466.418C45.1224 456.085 57.9876 452.549 65.6483 460.016L93.4448 487.108Z" fill="#EE964B"/>
<path d="M897.729 301.515C904.423 310.165 899.057 322.806 888.185 324L849.602 328.236C838.968 329.403 831.007 318.696 835.187 308.849L850.015 273.916C854.195 264.069 867.427 262.358 873.974 270.818L897.729 301.515Z" fill="#F4D35E"/>
<path d="M378.217 379.356C376.645 390.18 363.824 395.101 355.413 388.109L309.178 349.676C300.951 342.838 303.123 329.674 313.11 325.84L367.988 304.774C377.975 300.941 388.397 309.271 386.859 319.857L378.217 379.356Z" fill="#F4D35E"/>
<path d="M739.573 158.665C749.695 162.809 751.368 176.44 742.55 182.909L711.253 205.869C702.628 212.197 690.38 206.905 689.076 196.287L684.451 158.621C683.148 148.003 693.752 139.905 703.651 143.958L739.573 158.665Z" fill="#84BCDA"/>
</svg>
